HIERARCHY
ROOT Hips
{
	OFFSET 0.000000 0.000000 0.000000
	CHANNELS 6 Xposition Yposition Zposition Xrotation Yrotation Zrotation
	JOINT LeftUpLeg_virtual
	{
		OFFSET 0.000000 0.000000 0.000000
		CHANNELS 3 Xrotation Yrotation Zrotation
		JOINT LeftUpLeg
		{
			OFFSET 11.394100 -6.187798 -0.413800
			CHANNELS 3 Xrotation Yrotation Zrotation
			JOINT LeftLeg
			{
				OFFSET 0.430247 -32.302673 3.732800
				CHANNELS 3 Xrotation Yrotation Zrotation
				JOINT LeftFoot
				{
					OFFSET -0.430247 -48.264931 -6.423300
					CHANNELS 3 Xrotation Yrotation Zrotation
					JOINT LeftToeBase
					{
						OFFSET 4.230900 -16.068199 23.438400
						CHANNELS 3 Xrotation Yrotation Zrotation
						JOINT LeftToe_End
						{
							OFFSET 4.510700 0.695400 19.974600
							CHANNELS 3 Xrotation Yrotation Zrotation
							End Site
							{
								OFFSET 0 0 0
							}
						}
					}
				}
			}
		}
	}
	JOINT RightUpLeg_virtual
	{
		OFFSET 0.000000 0.000000 0.000000
		CHANNELS 3 Xrotation Yrotation Zrotation
		JOINT RightUpLeg
		{
			OFFSET -11.333700 -6.187798 -0.413800
			CHANNELS 3 Xrotation Yrotation Zrotation
			JOINT RightLeg
			{
				OFFSET -0.430392 -32.302628 3.733000
				CHANNELS 3 Xrotation Yrotation Zrotation
				JOINT RightFoot
				{
					OFFSET 0.430392 -48.264973 -6.423500
					CHANNELS 3 Xrotation Yrotation Zrotation
					JOINT RightToeBase
					{
						OFFSET -4.230900 -16.068199 23.438400
						CHANNELS 3 Xrotation Yrotation Zrotation
						JOINT RightToe_End
						{
							OFFSET -4.510700 0.695400 19.974600
							CHANNELS 3 Xrotation Yrotation Zrotation
							End Site
							{
								OFFSET 0 0 0
							}
						}
					}
				}
			}
		}
	}
	JOINT Spine_virtual
	{
		OFFSET 0.000000 0.000000 0.000000
		CHANNELS 3 Xrotation Yrotation Zrotation
		JOINT Spine
		{
			OFFSET -0.002400 12.777504 0.315300
			CHANNELS 3 Xrotation Yrotation Zrotation
			JOINT Spine1
			{
				OFFSET -0.002067 5.816869 0.032633
				CHANNELS 3 Xrotation Yrotation Zrotation
				JOINT Spine1_split
				{
					OFFSET -0.002067 5.816869 0.032633
					CHANNELS 3 Xrotation Yrotation Zrotation
					JOINT Spine2
					{
						OFFSET -0.002067 5.816869 0.032633
						CHANNELS 3 Xrotation Yrotation Zrotation
						JOINT Neck_virtual
						{
							OFFSET 0.000000 0.000000 0.000000
							CHANNELS 3 Xrotation Yrotation Zrotation
							JOINT Neck
							{
								OFFSET -0.003700 21.199493 -0.826900
								CHANNELS 3 Xrotation Yrotation Zrotation
								JOINT Head
								{
									OFFSET 0.000000 20.442200 4.834800
									CHANNELS 3 Xrotation Yrotation Zrotation
									JOINT HeadTop_End
									{
										OFFSET 0.000000 34.668396 4.968400
										CHANNELS 3 Xrotation Yrotation Zrotation
										End Site
										{
											OFFSET 0 0 0
										}
									}
								}
							}
						}
						JOINT LeftShoulder_virtual
						{
							OFFSET 0.000000 0.000000 0.000000
							CHANNELS 3 Xrotation Yrotation Zrotation
							JOINT LeftShoulder
							{
								OFFSET 3.288150 8.794197 -1.372250
								CHANNELS 3 Xrotation Yrotation Zrotation
								JOINT LeftShoulder_split
								{
									OFFSET 3.288150 8.794197 -1.372250
									CHANNELS 3 Xrotation Yrotation Zrotation
									JOINT LeftArm
									{
										OFFSET 11.953299 -2.279007 -0.146200
										CHANNELS 3 Xrotation Yrotation Zrotation
										JOINT LeftForeArm
										{
											OFFSET 18.448900 0.000000 0.000000
											CHANNELS 3 Xrotation Yrotation Zrotation
											JOINT LeftHand
											{
												OFFSET 29.527798 0.000000 0.000000
												CHANNELS 3 Xrotation Yrotation Zrotation
												End Site
												{
													OFFSET 0 0 0
												}
											}
										}
									}
								}
							}
						}
						JOINT RightShoulder_virtual
						{
							OFFSET 0.000000 0.000000 0.000000
							CHANNELS 3 Xrotation Yrotation Zrotation
							JOINT RightShoulder
							{
								OFFSET -3.249400 8.794197 -1.372250
								CHANNELS 3 Xrotation Yrotation Zrotation
								JOINT RightShoulder_split
								{
									OFFSET -3.249400 8.794197 -1.372250
									CHANNELS 3 Xrotation Yrotation Zrotation
									JOINT RightArm
									{
										OFFSET -11.953299 -2.279007 -0.146200
										CHANNELS 3 Xrotation Yrotation Zrotation
										JOINT RightForeArm
										{
											OFFSET -18.448900 0.000000 0.000000
											CHANNELS 3 Xrotation Yrotation Zrotation
											JOINT RightHand
											{
												OFFSET -29.527802 0.000000 0.000000
												CHANNELS 3 Xrotation Yrotation Zrotation
												End Site
												{
													OFFSET 0 0 0
												}
											}
										}
									}
								}
							}
						}
					}
				}
			}
		}
	}
}
MOTION
Frames: 4
Frame Time: 0.03333333
-0.023598 99.155869 -6.760441 0.000000 0.000000 0.000000 4.168241 5.697664 -0.546045 -22.200975 7.975625 8.143463 29.309916 2.501808 1.326901 -11.563116 0.896906 -4.632009 -0.761072 0.414452 0.384509 0.000000 0.000000 0.000000 4.496132 5.048841 -0.818646 -14.431650 -5.472910 -4.935300 22.429100 -9.061317 2.349663 -8.180586 -16.833613 -0.453126 -1.462803 0.107087 -0.868653 0.000000 0.000000 0.000000 5.245478 2.568006 -1.516799 18.578267 -2.188339 0.008164 0.233698 0.000531 1.055978 0.975758 -0.102620 0.037414 0.000000 0.000000 0.000000 1.075791 -0.476381 0.486649 17.831587 3.050456 -0.646410 11.357181 2.533891 1.908819 0.000000 0.000000 0.000000 0.906038 -0.008599 -0.055789 12.397512 -36.773458 -0.315925 1.658331 -1.282636 -3.059622 12.495123 17.250606 -47.242390 -1.315158 -37.013806 0.006216 0.000000 0.000000 0.000000 0.275642 -0.170945 0.782474 0.860365 -1.764682 7.264675 1.639785 5.304552 -1.583779 -0.518558 16.893658 36.745240 0.654615 14.985700 1.223764 0.000000 0.000000 0.000000 
0.029983 99.247849 -6.619938 0.000000 0.000000 0.000000 3.934735 5.749514 -0.448353 -21.810281 8.192429 8.064911 28.940147 2.487320 1.286398 -11.463320 0.886174 -4.489403 -0.738686 0.424907 0.444346 0.000000 0.000000 0.000000 4.316867 5.087477 -0.728490 -14.090176 -5.416095 -5.007030 22.199225 -8.900093 2.286792 -7.887888 -16.840596 -0.387172 -1.449254 0.093441 -0.835358 0.000000 0.000000 0.000000 4.983122 2.753362 -1.381027 17.990916 -2.216946 0.023006 0.272339 -0.030028 0.973377 0.984849 -0.157906 0.020349 0.000000 0.000000 0.000000 1.102467 -0.519411 0.389451 17.803195 2.305284 -0.366574 11.377556 0.011886 3.060200 0.000000 0.000000 0.000000 0.980079 -0.069228 -0.133279 12.117543 -36.522189 -0.282833 1.693723 -0.980729 -2.907858 14.045029 17.921949 -47.498850 -1.359705 -36.612485 -0.066146 0.000000 0.000000 0.000000 0.316509 -0.218864 0.740030 0.579143 -1.953484 6.874792 1.863757 5.409217 -1.450750 0.705806 16.114691 36.790018 0.708530 14.962931 1.121000 0.000000 0.000000 0.000000 
0.066998 99.303726 -6.559040 0.000000 0.000000 0.000000 3.727796 5.771847 -0.406963 -21.554079 8.329716 7.981678 28.656598 2.429057 1.298784 -11.358556 0.870582 -4.354667 -0.701595 0.439240 0.452154 0.000000 0.000000 0.000000 4.152426 5.089443 -0.685089 -13.786985 -5.365797 -5.024727 22.033611 -8.751859 2.248695 -7.661628 -16.855549 -0.316815 -1.499078 0.081573 -0.813390 0.000000 0.000000 0.000000 4.762018 2.922112 -1.298379 17.481055 -2.170540 0.040417 0.346887 -0.057965 0.961200 1.024733 -0.194338 0.006420 0.000000 0.000000 0.000000 1.118855 -0.546025 0.350453 17.668902 1.640408 -0.123404 11.323537 -2.087401 3.997344 0.000000 0.000000 0.000000 1.081060 -0.126266 -0.134280 11.836801 -36.058498 -0.247671 1.793260 -0.637236 -2.766671 15.075935 18.143578 -48.038448 -1.474395 -36.394041 -0.183395 0.000000 0.000000 0.000000 0.380048 -0.259577 0.749467 0.394909 -2.148150 6.633544 2.106489 5.640027 -1.363901 1.008102 15.527132 37.414905 0.688531 14.787418 1.060348 0.000000 0.000000 0.000000 
0.089549 99.312653 -6.541927 0.000000 0.000000 0.000000 3.528360 5.798990 -0.400106 -21.412887 8.324004 7.881891 28.497998 2.307401 1.371398 -11.224670 0.840419 -4.264547 -0.653198 0.455253 0.407882 0.000000 0.000000 0.000000 3.966897 5.084121 -0.668611 -13.517439 -5.310415 -4.994287 21.976888 -8.643302 2.234905 -7.559350 -16.902620 -0.275736 -1.569326 0.074179 -0.809166 0.000000 0.000000 0.000000 4.554535 3.083684 -1.250921 17.060481 -2.054954 0.058528 0.442883 -0.076309 1.008671 1.049019 -0.177852 -0.055836 0.000000 0.000000 0.000000 1.112026 -0.553327 0.359318 17.479383 1.081649 0.044539 11.259143 -3.762966 4.753820 0.000000 0.000000 0.000000 1.186059 -0.174503 -0.080093 11.563871 -35.481685 -0.249325 1.818864 -0.230683 -2.660262 15.592123 17.933198 -48.708893 -1.684371 -36.086109 -0.344834 0.000000 0.000000 0.000000 0.447584 -0.283115 0.797767 0.321628 -2.316107 6.623047 2.325308 5.866617 -1.272507 0.515598 15.182406 38.558453 0.631308 14.391934 1.010508 0.000000 0.000000 0.000000 
